<?xml version="1.0" encoding="UTF-8" standalone="no"?>
<!-- Created with Inkscape (http://www.inkscape.org/) -->

<svg
   version="1.1"
   id="svg1"
   width="1024"
   height="1024"
   viewBox="0 0 1024 1024"
   xmlns="http://www.w3.org/2000/svg"
   xmlns:svg="http://www.w3.org/2000/svg">
  <defs
     id="defs1" />
  <g
     id="g1">
     <style>
    /* Optional hint for UAs */
    :root { color-scheme: light dark; }

    /* default (light theme) */
    .ink { fill: #0F172A; }

    @media (prefers-color-scheme: dark) {
      .ink { fill: #FFFFFF; }
    }
    </style>
    <path
       class="ink"
       d="M 193.54937,878.21604 C 193.24722,877.91388 193,857.37622 193,832.57678 V 787.4869 l 8.75,0.007 8.75,0.007 0.31034,4.30815 0.31034,4.30815 2.11079,-2.68344 c 3.30381,-4.20011 11.24028,-7.41541 18.26853,-7.40113 10.81649,0.022 19.25116,5.68842 24.10136,16.19135 2.66907,5.77979 2.89786,7.18771 2.88876,17.77692 -0.009,10.56562 -0.24574,12.01255 -2.91269,17.80822 -3.56916,7.7563 -9.87091,13.60752 -16.90498,15.69641 -9.47313,2.81322 -17.10321,1.64096 -23.92245,-3.67536 L 211,846.90575 v 16.07378 16.07378 l -8.45063,-0.14395 c -4.64784,-0.0792 -8.69784,-0.39117 -9,-0.69332 z m 39.91525,-40.10051 c 4.40662,-2.50652 6.74508,-7.3036 7.28603,-14.94645 0.62513,-8.83207 -1.07659,-14.7972 -5.37884,-18.85475 -6.67449,-6.29486 -15.37539,-5.23098 -20.84302,2.54852 -2.6303,3.74245 -3.06826,5.33272 -3.38412,12.28811 -0.26352,5.80287 0.0989,9.19819 1.32414,12.40654 3.31221,8.67289 12.32729,11.48875 20.99581,6.55803 z M 133.35297,852.99984 C 122.42264,849.42726 115.37903,841.34288 113.53189,830.25 L 112.8242,826 h 9.01035 9.01035 l 1.10066,3.33505 c 0.60537,1.83428 2.36164,4.54315 3.90283,6.0197 7.20651,6.90428 23.82757,6.04013 27.69566,-1.43994 4.10674,-7.94156 -0.29835,-13.34856 -13.66416,-16.77198 -22.26986,-5.70404 -28.2063,-8.81327 -32.55372,-17.05011 -2.58965,-4.90649 -3.12776,-13.66586 -1.25405,-20.4135 3.76678,-13.56494 24.17052,-21.76841 43.07533,-17.31872 11.14747,2.62381 18.0846,8.47538 21.24974,17.92445 2.90597,8.67534 2.87263,8.71505 -7.31773,8.71505 h -8.92055 l -0.65297,-2.97297 c -1.37591,-6.26444 -8.74404,-9.73905 -18.63661,-8.7885 -6.25359,0.60089 -10.09012,3.35185 -11.29338,8.09782 -1.8604,7.33789 2.61549,10.56084 20.42405,14.70669 21.66612,5.0439 29.87942,13.39774 28.80535,29.29824 -0.71771,10.62492 -5.83425,17.91099 -15.80535,22.50717 -7.71469,3.55609 -24.52941,4.13148 -33.64703,1.15139 z m 155.43936,0.598 c -14.12737,-3.80268 -22.53679,-17.43737 -21.59082,-35.00648 1.04597,-19.42642 12.35382,-31.28218 30.88347,-32.37989 13.17387,-0.78042 23.31074,3.68954 29.81903,13.14902 7.67851,11.16032 7.94851,29.99237 0.59698,41.63794 -7.06027,11.1842 -24.45803,16.70445 -39.70866,12.59941 z m 16.59648,-13.98694 c 6.77517,-2.83084 10.61949,-9.82806 10.60561,-19.30372 -0.0231,-15.78265 -13.14863,-24.95926 -24.36095,-17.03177 -5.89296,4.16652 -8.38652,16.1414 -5.42173,26.03698 2.70435,9.02632 11.2449,13.61279 19.17707,10.29851 z m 54.73081,14.30371 c -5.22589,-1.6068 -8.03961,-3.85349 -10.41653,-8.31736 -2.03433,-3.82048 -2.18242,-5.4651 -2.1924,-24.34656 L 347.5,801.00138 342.70431,801.00069 337.90862,801 338.20431,794.25 338.5,787.5 h 4.48472 4.48472 l 0.14738,-8.5 c 0.0811,-4.675 0.20043,-8.8375 0.26528,-9.25 0.0648,-0.4125 3.9429,-0.75 8.6179,-0.75 h 8.5 v 9.54384 c 0,7.05497 0.32598,9.5015 1.25,9.38151 0.6875,-0.0893 4.2875,-0.109 8,-0.0438 L 381,788 v 6.5 6.5 h -8 -8 v 16.36514 c 0,15.20353 0.15177,16.55809 2.1382,19.08343 1.94616,2.47413 2.64223,2.68833 7.75,2.38485 L 380.5,838.5 l 0.56757,7 c 0.31216,3.85 0.27293,7.35423 -0.0872,7.78719 -1.06,1.27439 -17.17976,1.75922 -20.86076,0.62742 z m 49.00318,0.14709 c -4.44933,-1.13451 -8.16217,-3.98874 -10.6228,-8.16623 -1.79325,-3.04447 -2.03333,-5.54046 -2.3224,-24.14547 l -0.32241,-20.75 -4.67759,1.7e-4 -4.6776,1.8e-4 v -6.49989 -6.49988 l 4.75,-2.9e-4 L 396,788 v -9.5 -9.5 h 8.5 8.5 v 8.95469 8.95468 l 3.46033,0.64917 c 1.90318,0.35703 5.50318,0.48668 8,0.2881 L 429,787.48559 v 6.7572 V 801 h -8 -8 l 0.002,15.25 c 10e-4,12.51527 0.3151,15.87764 1.75,18.75 1.71355,3.43014 1.87079,3.4999 7.87764,3.49519 l 6.12919,-0.005 0.6442,6.93141 c 0.35432,3.81227 0.23462,7.341 -0.26599,7.84161 -1.26287,1.26287 -15.90182,1.84677 -20.01379,0.79829 z m 47.05052,-0.54574 c -13.90563,-4.33958 -21.90163,-17.65541 -20.97181,-34.9246 0.5781,-10.73693 4.204,-18.97243 11.07163,-25.14702 6.42218,-5.7741 13.21746,-7.85188 23.64188,-7.22894 16.35757,0.97749 25.1746,10.43538 27.05281,29.01914 0.45946,4.54601 0.62809,8.60296 0.37475,9.01546 -0.25334,0.4125 -10.33406,0.75 -22.4016,0.75 -24.73555,0 -23.67257,-0.41128 -19.97716,7.72934 4.25794,9.37981 16.52965,11.23633 23.63006,3.57486 2.29469,-2.47601 3.17549,-2.72006 9.96175,-2.76018 8.59541,-0.0508 9.01231,0.5856 5.34548,8.16025 -2.41326,4.98513 -8.83581,9.8699 -15.68877,11.93234 -5.68053,1.70959 -16.36164,1.65112 -22.03902,-0.12065 z M 479.40008,810.25 C 476.58217,798.10418 462.41026,795.71903 455.956,806.30433 452.03525,812.73454 452.47387,813 467.01905,813 h 13.01905 z m 46.59345,43.81566 c -7.63588,-2.32273 -14.57956,-8.67417 -18.11034,-16.56566 -1.87662,-4.19436 -2.24885,-6.85297 -2.31013,-16.5 -0.0659,-10.3768 0.17992,-12.03718 2.5171,-17 1.42459,-3.025 3.83452,-6.97133 5.3554,-8.76961 8.53683,-10.09396 25.06,-12.30746 35.03495,-4.69341 l 4.47136,3.41307 0.27406,-16.72502 L 553.5,760.5 l 8.75,-0.28893 8.75,-0.28894 V 806.96107 854 h -8.37219 -8.37219 l -0.67314,-4.20957 -0.67314,-4.20957 -2.20467,2.6842 c -4.51419,5.49605 -16.47915,8.30466 -24.71114,5.8006 z m 22.02802,-17.85191 c 4.71622,-4.71623 6.4022,-10.43247 5.51647,-18.70336 -1.24423,-11.61841 -7.42421,-18.08951 -16.40226,-17.1749 -2.40033,0.24452 -5.55033,1.31061 -7,2.36908 -8.93374,6.52295 -9.28774,26.56474 -0.60389,34.18927 3.05408,2.68151 4.30096,3.10616 9.12057,3.10616 5.12747,0 5.89169,-0.30884 9.36911,-3.78625 z m 322.45754,17.04077 c -2.7615,-0.98564 -6.43538,-2.79927 -8.16417,-4.03028 C 858.76948,846.69967 855,839.72233 855,835.68428 V 833 h 8.28076 8.28076 l 1.13898,3.01749 c 1.52567,4.04197 7.13318,6.41422 13.19719,5.58306 5.65207,-0.77471 8.10231,-2.9619 8.10231,-7.23248 0,-4.46882 -2.05526,-5.62889 -15.70579,-8.86492 -7.9806,-1.8919 -12.39191,-3.51569 -15.32693,-5.64181 -6.63085,-4.80336 -8.71595,-12.74042 -5.41955,-20.62981 3.47577,-8.31869 10.20466,-12.33916 21.81106,-13.03198 10.58955,-0.63212 17.3457,0.99969 22.53716,5.44338 4.6611,3.98973 6.52008,7.10804 7.51571,12.60707 l 0.67897,3.75 h -7.54532 c -4.14992,0 -7.88281,0.1125 -8.29531,0.25 -0.4125,0.1375 -0.89179,-0.74714 -1.06508,-1.96587 -0.17329,-1.21872 -1.67032,-3.35622 -3.32672,-4.75 C 884.2489,796.81422 873,799.04059 873,804.87069 c 0,4.38221 3.06416,6.22092 14.60886,8.76632 17.80339,3.92533 23.39114,8.5706 23.39114,19.44577 0,9.77906 -2.67868,14.13596 -11.5,18.7049 -6.69766,3.46901 -21.33812,4.209 -29.02091,1.46684 z M 615.10621,815.75 c 7.1663,-21.0375 13.96239,-41.0625 15.10241,-44.5 l 2.07277,-6.25 h 12.25231 c 10.73694,0 12.33845,0.21644 12.94867,1.75 0.383,0.9625 7.01614,20.425 14.74031,43.25 7.72418,22.825 14.26362,42.07945 14.53209,42.78768 0.38202,1.00777 -1.65469,1.22514 -9.36981,1 L 667.52704,853.5 664.05382,842.75 660.5806,832 H 644.48392 628.38723 L 625,843 l -3.38723,11 h -9.76811 -9.76811 z m 40.43625,-0.49995 C 654.263,811.91584 646.94633,789.48172 645.83976,785.5 l -1.11164,-4 -5.85203,17.5 c -3.21861,9.625 -5.85744,17.6125 -5.86406,17.75 -0.007,0.1375 5.21111,0.25 11.59496,0.25 10.6433,0 11.55123,-0.14529 10.93547,-1.74995 z M 695,820.75 V 787.5 h 8.5 c 9.26965,0 9.00548,-0.20069 8.55591,6.5 l -0.23483,3.5 3.68983,-4.27622 C 720.34791,787.61807 723.70311,786 730.48998,786 h 5.58929 l -0.16745,8.5 -0.16745,8.5 h -4.90431 c -8.12908,0 -14.28863,3.75641 -16.73098,10.20341 -0.56329,1.48688 -1.0925,11.27438 -1.17604,21.75 L 712.78115,854 H 703.89057 695 Z m 49.23652,0.0337 0.26348,-33.21628 8.5,0.13558 8.5,0.13558 -0.31748,4.0807 c -0.17461,2.24439 -0.0331,4.0807 0.31456,4.0807 0.34762,0 1.78459,-1.36973 3.19327,-3.04385 3.88307,-4.61476 9.30044,-6.95968 16.01981,-6.93419 7.19758,0.0273 12.94498,2.52313 16.92264,7.34873 l 2.99132,3.62899 2.13063,-2.88183 c 5.93343,-8.02539 20.97791,-10.60416 31.31594,-5.36785 4.6829,2.37194 5.84174,3.57486 8.42931,8.75 l 3,6 0.3258,25.25 0.3258,25.25 H 837.0758 828 v -21.53212 c 0,-23.35401 -0.62554,-26.86597 -5.33489,-29.95165 -3.27381,-2.14509 -9.71976,-2.18175 -12.93721,-0.0736 C 804.58499,805.8124 804,808.87204 804,832.40113 V 854 h -9 -9 v -21.4349 c 0,-22.06938 -0.45973,-25.2785 -4.19219,-29.26323 -4.74852,-5.06945 -13.76545,-3.4227 -17.51164,3.19813 -2.1574,3.81288 -2.26404,5.01745 -2.27972,25.75 L 762,854 h -9.01348 -9.01348 z M 330.53399,645.12345 282.5,597.2469 l -5.19975,-0.57038 c -17.09332,-1.87505 -32.11187,-18.22889 -33.14475,-36.09164 -0.78831,-13.63304 3.33803,-24.12308 13.0121,-33.07957 8.32108,-7.70385 14.45654,-9.79373 27.3903,-9.32979 8.91273,0.3197 10.80533,0.72874 16.62257,3.59256 8.04067,3.95841 14.0464,10.25019 17.90297,18.75567 1.76403,3.89049 4.14109,7.27765 6.1465,8.7584 38.401,28.35426 95.3938,70.72836 105.62463,78.53181 L 444.20914,638 h 67.42205 67.42204 l 22.72339,-16.79187 c 12.49786,-9.23553 35.72156,-26.44803 51.60823,-38.25 15.88666,-11.80197 33.43666,-24.83313 39,-28.95813 9.24312,-6.85342 10.27843,-7.95708 12.00909,-12.80194 2.0927,-5.85838 8.91372,-14.10464 14.67542,-17.74184 10.04987,-6.34421 27.29231,-7.27183 38.19601,-2.05491 7.85729,3.75937 14.65411,10.65842 18.80283,19.08566 3.217,6.53466 3.4318,7.59819 3.4318,16.992 0,8.82811 -0.32546,10.71575 -2.734,15.85692 -3.54666,7.57057 -7.8628,12.94661 -13.51784,16.83738 -4.87715,3.35556 -14.65313,6.82673 -19.2264,6.82673 -2.36375,0 -10.25066,7.47939 -50.61533,48 l -47.81527,48 H 512.07957 378.56798 Z m -38.43243,-71.71288 c 4.52102,-2.27376 8.70694,-7.95078 9.43314,-12.79339 1.50802,-10.05618 -5.0703,-19.00487 -15.42011,-20.97644 -8.88888,-1.69328 -19.30379,5.76968 -20.65844,14.80313 -2.21298,14.7572 13.20029,25.72865 26.64541,18.9667 z m 458.71253,-1.39085 c 9.48162,-6.86846 10.5059,-18.93503 2.30356,-27.13737 -9.88863,-9.88862 -26.14065,-5.55073 -30.2204,8.06625 -2.13166,7.11486 1.11752,15.12304 8.02443,19.7776 2.60865,1.75797 4.78108,2.2738 9.57616,2.2738 5.29511,0 6.80372,-0.43583 10.31625,-2.98028 z M 430,590.29056 c -4.8604,-1.78713 -5,-2.44173 -5,-23.44555 V 547 l -10.75,-0.0148 c -11.43683,-0.0157 -20.86891,-1.72983 -27.14941,-4.9339 -7.20251,-3.67445 -14.80897,-11.68267 -18.84141,-19.8366 L 364.5,514.61334 364.16025,499.30667 363.8205,484 H 341.44543 C 315.79987,484 317,484.45966 317,474.63717 317,465.86408 316.60689,466 341.98162,466 h 21.83877 l 0.12916,-16 0.12915,-16 h -21.60509 c -12.98059,0 -22.37723,-0.41323 -23.53935,-1.03518 C 317.30909,432.09505 317,430.82808 317,425.03624 317,414.64238 316.10576,415 342.0962,415 h 21.95334 l -0.27477,-16.19986 -0.27477,-16.19987 -10,-0.15435 c -5.5,-0.0849 -15.25536,-0.21996 -21.67857,-0.30014 C 317.70208,381.96953 317,381.53631 317,373 c 0,-9.19532 -0.54412,-9 25.07143,-9 H 364 V 348 332 H 342.15499 C 316.43839,332 317,332.21944 317,322.17126 317,311.93574 316.83891,312 342.5,312 H 364 l 0.0108,-13.25 c 0.0117,-14.29322 1.14028,-19.91937 5.48191,-27.3278 3.93143,-6.70849 7.52402,-10.47664 13.9456,-14.62711 8.49652,-5.49157 14.88017,-7.09346 29.06167,-7.29265 l 12,-0.16856 0.5,-20.13391 c 0.56059,-22.57357 0.68032,-22.94502 7.69967,-23.88651 2.6256,-0.35217 5.04154,0.0185 7.11734,1.09191 l 3.14251,1.62506 0.27024,20.66652 0.27024,20.66652 7.5,-0.13121 c 4.125,-0.0722 11.65337,-0.15395 16.72971,-0.18174 l 9.22971,-0.0505 0.27029,-20.7373 0.27029,-20.7373 2.84373,-1.36219 c 3.40153,-1.62938 10.88258,-0.79405 13.14432,1.4677 1.24725,1.24725 1.51195,4.97164 1.51195,21.27385 0,10.86905 0.18626,19.94941 0.41391,20.17857 0.22765,0.22917 7.62662,0.28293 16.44215,0.11947 l 16.02824,-0.29721 0.30785,-19.91937 c 0.3504,-22.67254 0.28139,-22.47753 8.32596,-23.52744 4.16164,-0.54314 5.4417,-0.31181 7.5,1.35537 l 2.48189,2.01029 -0.11644,20.08778 c -0.0945,16.30681 0.14075,20.11601 1.25,20.23778 1.69512,0.18608 3.10032,0.18608 19.94469,0 L 581.1565,249 580.86903,228.87862 c -0.28576,-20.00158 -0.27366,-20.13255 2.03253,-22 3.1149,-2.52228 10.10175,-2.50573 13.23766,0.0314 2.31767,1.87511 2.36672,2.27687 2.68584,22 L 599.15012,249 l 6.17494,0.0178 c 20.2328,0.0582 32.21313,3.76613 41.54885,12.85941 C 656.32247,271.08037 660,281.67198 660,299.6815 V 312 l 21.25,0.0153 c 11.6875,0.008 21.74513,0.34592 22.3503,0.75 3.85042,2.571 4.76779,13.8666 1.3997,17.23469 -1.87597,1.87597 -3.33333,2 -23.5,2 H 660 v 16 16 h 21.97432 21.97432 l 1.63705,3.16571 c 1.91992,3.7127 1.45425,11.22292 -0.838,13.51517 -1.17868,1.17868 -5.66791,1.55215 -22.36122,1.86026 -11.48756,0.21203 -21.22397,0.40202 -21.63647,0.42219 C 660.3375,382.9835 660,390.2 660,399 v 16 h 21.9433 c 21.54196,0 21.97176,0.0407 23.5,2.22251 2.77273,3.95863 1.65414,13.67707 -1.843,16.01218 -0.60517,0.40408 -10.6628,0.74158 -22.3503,0.75 L 660,434 v 16 16 h 21.9433 c 21.54196,0 21.97176,0.0407 23.5,2.22251 0.85618,1.22237 1.5567,4.27225 1.5567,6.77749 0,2.50524 -0.70052,5.55512 -1.5567,6.77749 -1.52824,2.18186 -1.95804,2.22251 -23.5,2.22251 H 660 l -0.0119,12.75 c -0.0171,18.36396 -2.7293,26.78264 -11.72762,36.40258 C 638.94284,543.11392 628.3033,547 610.34819,547 h -11.23162 l -0.30828,20.09023 c -0.30281,19.73307 -0.35026,20.12419 -2.66907,22 -2.90612,2.35092 -9.79552,2.53924 -12.91671,0.35307 C 581.04907,587.92096 581,587.4352 581,567.4433 V 547 H 563.5 546 v 20 c 0,19.03236 -0.10238,20.10238 -2.11608,22.11608 -1.75253,1.75253 -2.96796,2.03422 -7.07466,1.63961 -8.22036,-0.78987 -8.26433,-0.91138 -8.61777,-23.8136 l -0.30851,-19.99107 -16.19149,0.27449 L 495.5,547.5 l -0.25145,20 c -0.23845,18.966 -0.3605,20.09048 -2.36078,21.75 -3.27182,2.71445 -10.38743,2.34125 -13.43322,-0.70455 -2.43862,-2.43861 -2.45455,-2.58136 -2.45455,-22 V 547 h -17 -17 l -0.0153,19.75 c -0.008,10.8625 -0.34592,20.24513 -0.75,20.8503 -1.88896,2.82897 -8.12698,4.20064 -12.23469,2.69026 z m -13.20067,-89.31824 c 2.76874,-2.57947 3.68575,-6.19743 2.25052,-8.87918 C 414.81419,484.17874 403,486.5157 403,495.26796 c 0,6.48249 8.97971,10.19452 13.79933,5.70436 z m 23.65587,1.4065 c 0.89032,-0.34165 2.31375,-1.96512 3.16316,-3.60771 4.163,-8.05035 -5.7995,-15.68088 -12.16381,-9.31656 -6.39066,6.39065 0.44567,16.20712 9.00065,12.92427 z m 26.53715,-1.87068 c 3.27563,-3.48675 3.11606,-8.15797 -0.38145,-11.1664 -3.36126,-2.89124 -6.53378,-2.97684 -9.97604,-0.26916 C 454.6025,490.67124 454,492.02662 454,495 c 0,7.13511 8.19855,10.61091 12.99235,5.50814 z m 25.5531,0.0373 C 493.90352,499.18739 495,496.91945 495,495.46853 495,492.01109 489.98891,487 486.53147,487 482.83224,487 479,491.14193 479,495.14009 c 0,7.16426 8.42467,10.52615 13.54545,5.40536 z m 23.38303,0.99154 c 4.78108,-2.4724 5.53602,-7.81254 1.62401,-11.48768 -2.88212,-2.70761 -6.53693,-2.94475 -10.03724,-0.65126 -4.57935,3.0005 -3.06625,10.85145 2.48475,12.89251 2.36817,0.87077 2.92397,0.80012 5.92848,-0.75357 z m 26.75707,-1.7113 c 2.90526,-2.72935 2.96094,-6.50863 0.14014,-9.51124 -4.54843,-4.84157 -12.15902,-1.80317 -12.15902,4.85429 0,6.09479 7.42569,8.97202 12.01888,4.65695 z m 24.8599,-0.28024 C 571.94431,495.1466 569.68762,489 563.67375,489 c -6.3353,0 -8.7441,6.02055 -4.2192,10.54545 3.09551,3.09552 4.99539,3.09552 8.0909,0 z m 25,0 c 3.05752,-3.05751 3.08298,-4.70333 0.12593,-8.14111 -1.83862,-2.13752 -2.87604,-2.56979 -4.93008,-2.05426 -5.69919,1.43041 -7.1996,5.52628 -3.66872,10.01506 2.58859,3.29086 5.30453,3.34866 8.47287,0.18031 z M 587,495.05902 c 0,-0.51754 0.45,-1.2191 1,-1.55902 0.55,-0.33992 1,0.0835 1,0.94098 0,0.85746 -0.45,1.55902 -1,1.55902 -0.55,0 -1,-0.42344 -1,-0.94098 z M 414.92848,476.53699 C 422.17269,472.79086 419.36059,462 411.14014,462 c -8.71203,0 -11.32191,10.64367 -3.64014,14.84527 2.69723,1.47527 4.09135,1.41741 7.42848,-0.30828 z m 26.75707,-1.7113 c 2.87947,-2.70513 2.97468,-6.71663 0.24187,-10.19083 -2.70936,-3.44439 -7.13264,-3.52054 -10.47287,-0.18031 -6.88537,6.88536 3.13219,17.04012 10.231,10.37114 z m 25.26366,0.41652 c 3.01542,-2.44173 3.02938,-7.57165 0.0293,-10.76508 -2.94019,-3.12969 -7.51667,-3.25964 -10.66407,-0.30282 -6.85143,6.43659 3.30312,17.00471 10.63476,11.0679 z m 24.59624,-0.69676 c 2.833,-2.83299 3.13553,-6.12821 0.86078,-9.37586 -2.29519,-3.27684 -8.91657,-2.73164 -11.66179,0.96024 -2.2386,3.01055 -1.75265,5.85297 1.52225,8.904 2.85164,2.65671 6.31602,2.47437 9.27876,-0.48838 z m 25.62581,-0.20044 c 2.62727,-2.37765 2.4081,-7.8258 -0.39377,-9.78831 -6.75969,-4.73467 -14.72314,3.42593 -9.2475,9.47644 2.18331,2.41253 7.1428,2.57296 9.64127,0.31187 z m 25.24871,-0.25658 c 2.37659,-2.6261 1.65763,-6.96138 -1.5498,-9.34506 C 534.66577,460.1324 527.52782,468.52782 533,474 c 2.53108,2.53108 7.16999,2.57463 9.41997,0.0884 z m 25.24749,-1.70366 c 1.53546,-2.34341 1.56037,-2.88909 0.23963,-5.25 -1.78046,-3.18273 -5.15686,-3.85636 -8.46491,-1.68884 -2.96254,1.94113 -3.13355,4.8627 -0.44218,7.55407 2.82921,2.82921 6.58527,2.5626 8.66746,-0.61523 z M 591,473 c 2.55365,-2.55365 2.54301,-5.19861 -0.0303,-7.5274 -1.60557,-1.45303 -2.59922,-1.63856 -4.75,-0.88694 -3.73905,1.30667 -4.35972,6.50244 -1.05341,8.81828 2.92027,2.04543 3.41884,2.01091 5.83369,-0.40394 z M 416.19528,449.31291 c 3.59329,-3.44259 3.556,-6.71547 -0.11836,-10.38983 -3.60722,-3.60723 -7.31992,-3.77099 -10.62237,-0.46853 -4.80567,4.80566 -1.45357,13.54545 5.19528,13.54545 1.61182,0 3.896,-1.10682 5.54545,-2.68709 z m 25.76576,-0.50147 c 4.50184,-4.83215 0.89444,-12.18147 -5.70188,-11.61643 -6.53775,0.56002 -9.25831,7.66299 -4.68623,12.23506 2.32991,2.32992 7.95311,1.99504 10.38811,-0.61863 z M 467,449 c 4.25685,-4.25685 0.70791,-12 -5.5,-12 -3.5936,0 -7.5,3.64597 -7.5,7 0,0.95166 0.93266,2.91597 2.07258,4.36514 2.59699,3.30154 7.94976,3.61252 10.92742,0.63486 z m 24.68555,-0.17431 c 6.38856,-6.00175 -2.21929,-15.34271 -9.46304,-10.26899 -1.56497,1.09615 -2.22251,2.57542 -2.22251,5 0,6.66963 6.88846,9.77562 11.68555,5.26899 z M 516.2079,448.75 c 3.16872,-2.49089 3.14732,-5.54863 -0.0613,-8.75724 C 512.64035,436.4865 510.74453,436.25547 508,439 c -2.42959,2.42959 -2.58988,6.6907 -0.34501,9.17126 1.90728,2.10752 6.23553,2.4004 8.55291,0.57874 z m 25.71218,-1.16492 c 1.66883,-1.7764 2.07918,-3.03235 1.55192,-4.75 C 542.32006,439.08235 540.96849,438 537.43426,438 c -5.68141,0 -8.37032,6.06394 -4.43426,10 2.68408,2.68408 6.16064,2.52236 8.92008,-0.41492 z M 567,448 c 1.1,-1.1 2,-2.9 2,-4 0,-2.49399 -3.39582,-6 -5.81144,-6 -1.9846,0 -6.18856,3.46768 -6.18856,5.1047 0,2.05204 2.18137,5.02851 4.31537,5.88832 3.15599,1.27158 3.47592,1.21569 5.68463,-0.99302 z m 25.18585,-1.50854 c 2.52927,-5.55115 -3.79326,-9.9667 -8.35711,-5.83647 -2.23473,2.0224 -2.28896,3.24294 -0.27204,6.1225 2.23711,3.19392 7.11728,3.03215 8.62915,-0.28603 z m 25.24272,0.93711 c 1.97723,-1.97723 1.98061,-3.39937 0.0147,-6.20606 C 614.54821,437.08919 609,438.91432 609,444 c 0,1.43 0.54,3.14 1.2,3.8 1.68275,1.68275 5.36352,1.49362 7.22857,-0.37143 z M 416.64123,423.44968 C 421.15023,418.94067 417.68062,412 410.91759,412 c -6.71767,0 -10.15362,6.99095 -5.74328,11.68555 3.01863,3.21318 8.12286,3.10819 11.46692,-0.23587 z m 24.17021,0.51136 C 445.06124,420.00175 442.69827,412 437.27927,412 c -7.6409,0 -10.41303,8.07538 -4.36593,12.7182 2.37488,1.82337 5.44405,1.52914 7.8981,-0.75716 z m 24.22373,0.52077 c 7.22274,-3.73502 2.58901,-13.92936 -5.6001,-12.32037 -0.94771,0.18621 -2.62477,1.5474 -3.72679,3.02487 -1.73733,2.32922 -1.84165,3.07748 -0.7848,5.62895 1.07099,2.58559 3.97178,4.91356 6.37618,5.11706 0.43981,0.0372 2.12079,-0.6155 3.73551,-1.45051 z m 26.89225,-2.11667 C 493.06734,420.91597 494,419.17666 494,418.5 c 0,-0.67666 -0.93266,-2.41597 -2.07258,-3.86514 -5.49008,-6.97951 -15.47275,0.85845 -10.37072,8.14263 2.27799,3.25229 7.65633,3.03844 10.37072,-0.41235 z m 23.85007,1.07816 c 2.47805,-1.73569 3.08085,-7.18496 1.02251,-9.2433 -1.71162,-1.71162 -7.37339,-1.48375 -9.22857,0.37143 -2.22517,2.22516 -1.94747,6.00033 0.61713,8.38961 2.62214,2.4429 4.60943,2.56918 7.58893,0.48226 z m 26.18733,-1.37756 C 542.53417,421.0019 543,418.99273 543,417.60093 c 0,-5.12915 -8.24345,-6.23706 -10.90897,-1.46616 -1.31845,2.35984 -1.29325,2.90765 0.24151,5.25 2.16812,3.30897 8.00497,3.72162 9.63228,0.68097 z m 25.59506,-0.51678 c 1.89577,-2.89331 1.17657,-6.08446 -1.72075,-7.63505 -5.14414,-2.75307 -10.50912,2.88841 -7.34265,7.72107 2.1395,3.26529 6.89712,3.22013 9.0634,-0.086 z m 24,0 c 3.02457,-4.61607 -1.61588,-10.19491 -6.36566,-7.6529 C 580.55387,416.3795 582.29291,424 587.5,424 c 1.50093,0 3.07757,-0.95185 4.05988,-2.45104 z M 415.36514,398.92742 c 3.51464,-2.76461 3.74215,-9.03843 0.41235,-11.37072 -3.52744,-2.47071 -8.29073,-1.99097 -10.70491,1.07816 -2.80334,3.56387 -2.60655,6.96577 0.57344,9.91289 3.23399,2.99716 6.24213,3.11467 9.71912,0.37967 z m 25.41235,-0.48412 C 442.42592,397.28869 443,395.88268 443,393 c 0,-6.19593 -6.18866,-9.19139 -10.84657,-5.25 -7.06995,5.98237 1.02309,16.01722 8.62406,10.6933 z m 25.05155,-0.1933 c 3.85477,-3.28968 2.90823,-9.28776 -1.77157,-11.22619 -3.31853,-1.37459 -6.00747,-0.36098 -8.50619,3.20643 -2.03808,2.90977 -1.95984,3.98065 0.5213,7.1349 2.44994,3.1146 6.6928,3.4994 9.75646,0.88486 z M 491.75,397.25414 c 4.88881,-6.40003 -4.21691,-13.96284 -9.71104,-8.06558 -2.80454,3.01031 -2.55796,6.25803 0.66776,8.79538 3.0183,2.3742 6.91226,2.05995 9.04328,-0.7298 z m 24.67857,0.17443 c 2.16492,-2.16492 1.9683,-6.0317 -0.42857,-8.42857 -2.53348,-2.53348 -4.07134,-2.51833 -7.36514,0.0726 -3.00885,2.36676 -3.30996,4.51857 -1.07816,7.70491 1.84865,2.63931 6.5394,2.98355 8.87187,0.65108 z m 25.53247,-0.61713 C 543.08247,395.60773 544,394.01228 544,393.26598 544,391.41525 539.45188,387 537.54545,387 535.28728,387 532,390.65825 532,393.17126 c 0,5.32654 6.25901,7.61384 9.96104,3.64018 z M 567,397 c 2.40692,-2.40692 2.50067,-3.84018 0.4433,-6.77749 -1.715,-2.4485 -6.25425,-3.01156 -8.2433,-1.02251 -2.89389,2.89389 -0.10679,9.8 3.95499,9.8 1.01475,0 2.74501,-0.9 3.84501,-2 z m 23.77749,0.4433 c 2.73063,-1.91261 2.87145,-5.54604 0.30498,-7.86867 -2.59385,-2.3474 -6.19726,-1.64375 -7.98956,1.56014 -1.32074,2.36091 -1.29583,2.90659 0.23963,5.25 1.95332,2.98113 4.23657,3.30577 7.44495,1.05853 z M 415.36514,372.92742 c 3.23557,-2.5451 3.60389,-7.74048 0.73295,-10.33865 -2.88788,-2.61349 -8.89155,-1.77191 -11.39645,1.59754 -1.73055,2.32784 -1.83439,3.07899 -0.77816,5.62895 2.10618,5.08477 7.17955,6.46474 11.44166,3.11216 z M 441.19301,372.25 c 3.12923,-3.64351 2.87332,-8.17035 -0.59271,-10.48469 -3.9084,-2.6097 -10.6003,0.73072 -10.6003,5.29139 0,5.78559 7.63992,9.33033 11.19301,5.1933 z M 466,372 c 1.1,-1.1 2,-3.125 2,-4.5 0,-1.375 -0.9,-3.4 -2,-4.5 -5.78433,-5.78433 -14.17809,2.01763 -9.4433,8.77749 1.9811,2.82842 6.7256,2.94021 9.4433,0.22251 z m 25,0 c 5.54137,-5.54137 -2.35656,-13.60724 -8.17126,-8.34501 -2.55435,2.31166 -2.35028,6.8663 0.39377,8.78831 2.99128,2.09517 5.37488,1.95931 7.77749,-0.4433 z m 26.44338,-2.30277 c 2.43684,-6.97059 -7.88229,-10.93341 -10.50532,-4.03432 -1.58859,4.17831 1.16271,7.53584 5.85398,7.14386 2.99383,-0.25014 3.85239,-0.82412 4.65134,-3.10954 z M 541.8,371.8 c 1.95411,-1.95411 1.48296,-7.5782 -0.73426,-8.76482 -5.8651,-3.1389 -11.16946,2.16546 -8.03056,8.03056 1.18662,2.21722 6.81071,2.68837 8.76482,0.73426 z m 25.7274,-0.83028 c 3.83273,-4.23511 -1.52347,-9.99501 -7.30548,-7.85611 -1.7132,0.63375 -2.22192,1.61928 -2.22192,4.30448 0,5.43158 5.85188,7.61304 9.5274,3.55163 z m 24.91614,-1.27249 c 1.67109,-4.78093 -1.50641,-7.65122 -6.95598,-6.28346 -3.15404,0.79161 -4.06544,4.05534 -2.00893,7.19396 2.35254,3.59043 7.57717,3.05981 8.96491,-0.9105 z M 416.29836,345.81369 c 1.73862,-2.3387 1.83743,-3.07166 0.76355,-5.66422 -0.70184,-1.69439 -2.51699,-3.50954 -4.21138,-4.21138 -2.59245,-1.07383 -3.32562,-0.97506 -5.66422,0.76308 -3.35531,2.4938 -4.11878,7.61098 -1.55776,10.44088 2.57133,2.84129 8.07987,2.15549 10.66981,-1.32836 z m 22.7513,1.66063 C 441.43987,346.23829 442,345.3026 442,342.54575 c 0,-1.87159 -0.70714,-4.11004 -1.57143,-4.97432 -3.43487,-3.43487 -10.44067,-0.58547 -10.41326,4.23527 0.018,3.16971 0.76552,4.45641 3.48469,5.99835 2.52305,1.43074 2.0939,1.45631 5.54966,-0.33073 z M 466,346 c 1.1,-1.1 2,-2.9 2,-4 0,-2.77182 -3.49719,-6 -6.5,-6 -2.90103,0 -6.5,3.19893 -6.5,5.77749 0,5.55192 6.98811,8.2344 11,4.22251 z m 24.17126,0.34501 c 2.07675,-1.87943 2.42198,-6.35177 0.62874,-8.14501 -1.69902,-1.69902 -6.36891,-1.48823 -8.22857,0.37143 -2.14022,2.14021 -1.97371,5.02629 0.42857,7.42857 2.43335,2.43335 4.741,2.54437 7.17126,0.34501 z m 25.60623,0.0983 c 2.39948,-1.68066 2.83442,-4.43141 1.18733,-7.50904 -1.25226,-2.33987 -7.11335,-2.66514 -8.91463,-0.49473 -1.93098,2.32668 -0.86332,6.85651 1.94981,8.27256 3.15886,1.59008 3.12107,1.59184 5.77749,-0.26879 z m 25,0 c 2.63177,-1.84336 2.8721,-5.06803 0.56752,-7.61456 -2.25013,-2.48636 -5.90025,-2.30182 -7.78831,0.39377 -2.05737,2.93731 -1.96362,4.37057 0.4433,6.77749 2.40692,2.40692 3.84018,2.50067 6.77749,0.4433 z M 566.8,345.8 c 1.97676,-1.97676 1.45129,-6.59515 -0.89314,-7.84985 -4.88542,-2.61459 -9.5713,2.07129 -6.95671,6.95671 1.2547,2.34443 5.87309,2.8699 7.84985,0.89314 z M 415.4433,320.77749 C 417.53847,317.78621 417.40261,315.40261 415,313 c -5.59423,-5.59423 -14.64253,2.31757 -9.34501,8.17126 2.37765,2.62727 7.8258,2.4081 9.78831,-0.39377 z M 440,321 c 2.65368,-2.65368 2.55232,-6.49973 -0.22251,-8.4433 -3.08341,-2.15971 -5.0595,-1.94987 -7.65496,0.81288 -5.24377,5.58173 2.46203,13.04586 7.87747,7.63042 z m 25.17126,0.34501 c 2.47951,-2.24392 2.35389,-6.86377 -0.23595,-8.67777 -2.08334,-1.45922 -5.38292,-1.20178 -7.68531,0.59964 -2.06949,1.61918 -1.49514,6.44801 0.97251,8.17642 2.84547,1.99304 4.66631,1.96729 6.94875,-0.0983 z m 26.99203,-1.80405 C 493.75386,316.05004 491.03419,312 487.09939,312 c -4.46779,0 -6.93722,4.35882 -4.46725,7.8852 2.20382,3.14638 8.0367,2.93572 9.53115,-0.34424 z m 25.25089,-0.76068 c 1.80566,-5.16607 -4.4282,-8.88754 -8.58544,-5.12529 -2.0862,1.88798 -2.29,3.61462 -0.76334,6.46722 0.82291,1.53761 1.89992,1.92097 4.73179,1.68426 2.9586,-0.24731 3.84989,-0.8315 4.61699,-3.02619 z m 23.75708,1.56473 c 2.26919,-2.05358 2.3248,-4.13939 0.17375,-6.51627 -4.24698,-4.69286 -11.34051,0.87727 -7.71287,6.05646 1.77506,2.53425 5.02769,2.73263 7.53912,0.45981 z M 567,320 c 2.43272,-2.43272 2.50811,-3.78107 0.34501,-6.17126 -2.05815,-2.27423 -5.11713,-2.34495 -7.51627,-0.17375 -2.24438,2.03113 -2.34522,4.68567 -0.25731,6.77358 2.14021,2.14022 5.02629,1.97371 7.42857,-0.42857 z m 24.17126,0.34501 c 2.26919,-2.05358 2.3248,-4.13939 0.17375,-6.51627 C 588.24474,310.40297 583,312.62951 583,317.37143 c 0,4.45379 4.66129,6.15006 8.17126,2.97358 z M 616.8,320.8 c 2.13301,-2.13301 1.45257,-6.7278 -1.17351,-7.92432 C 612.22226,311.32461 609,313.25 609,316.83518 c 0,3.29824 1.62631,5.16482 4.5,5.16482 1.155,0 2.64,-0.54 3.3,-1.2 z M 414.42857,295.42857 c 2.03797,-2.03797 2.00216,-5.29513 -0.0836,-7.59983 C 411.09009,284.2321 405,286.95505 405,292.00701 c 0,4.57464 6.072,6.77813 9.42857,3.42156 z M 440,295 c 1.1,-1.1 2,-2.675 2,-3.5 0,-2.0155 -3.593,-5.5 -5.67126,-5.5 -4.43524,0 -6.92874,6.25715 -3.75731,9.42857 2.14021,2.14022 5.02629,1.97371 7.42857,-0.42857 z m 24.77749,0.4433 c 2.63177,-1.84336 2.8721,-5.06803 0.56752,-7.61456 C 462.1485,284.29664 456,286.77679 456,291.59828 c 0,2.18681 3.27341,5.40172 5.5,5.40172 0.58024,0 2.05512,-0.70052 3.27749,-1.5567 z m 25,0 C 491.01849,294.57407 492,292.83262 492,291.5 c 0,-2.35524 -3.24971,-5.5 -5.68355,-5.5 -0.6812,0 -2.1586,0.98757 -3.28312,2.1946 -2.23898,2.40326 -1.93415,5.43853 0.75877,7.5554 2.08486,1.63888 3.29631,1.5768 5.98539,-0.3067 z m 26.26248,-0.27458 c 4.46799,-3.61796 0.0388,-10.28975 -5.44657,-8.20423 -3.68858,1.40239 -4.56942,5.82676 -1.63337,8.20423 1.24385,1.0072 2.83683,1.83128 3.53997,1.83128 0.70314,0 2.29612,-0.82408 3.53997,-1.83128 z m 52.31179,-2.40585 c 0.2867,-1.09633 -0.0116,-2.8465 -0.66277,-3.88927 -3.2642,-5.22682 -10.99288,-1.55717 -9.12372,4.33203 1.32872,4.18644 8.66269,3.85464 9.78649,-0.44276 z M 591,295 c 2.26853,-2.26853 2.43543,-3.31787 0.96482,-6.06574 -1.17324,-2.19222 -5.86335,-2.63573 -7.76482,-0.73426 -1.68275,1.68275 -1.49362,5.36352 0.37143,7.22857 2.10675,2.10676 4.02085,1.97915 6.42857,-0.42857 z m 26,0 c 2.27951,-2.27951 2.46264,-3.82524 0.7182,-6.06197 -3.17271,-4.06804 -8.7182,-2.11592 -8.7182,3.06898 0,4.7382 4.55184,6.44115 8,2.99299 z m -75.2,-0.2 c 2.0157,-2.0157 1.37888,-5.63669 -1.3,-7.39196 -2.31587,-1.51741 -2.68413,-1.51741 -5,0 -4.42792,2.90129 -2.77211,8.59196 2.5,8.59196 1.43,0 3.14,-0.54 3.8,-1.2 z M 239.45039,514.10376 C 238.0306,509.37169 235.26849,500.325 233.31237,494 c -1.95612,-6.325 -7.95862,-26.47285 -13.33889,-44.773 -9.05739,-30.80728 -10.05711,-33.57717 -13.49057,-37.37759 -10.64191,-11.77933 -10.37234,-28.79646 0.605,-38.19266 L 211,370.30814 l 0.004,-20.90407 c 0.003,-18.9171 0.18794,-21.20617 1.9417,-24.08238 1.32525,-2.17344 6.1456,-5.67257 15.24626,-11.06738 30.31827,-17.97247 28.00228,-17.63564 42.85795,-6.2331 C 288.19845,321.18384 290,323.02152 290,327.35163 290,332.50297 286.45833,336 281.24124,336 c -4.00919,0 -8.45231,-2.35774 -17.59614,-9.33738 C 261.00604,324.64818 258.47874,323 258.02887,323 c -0.44987,0 -5.8154,2.95661 -11.9234,6.57024 L 235,336.14048 v 15.69828 15.69829 l 12.45541,6.20419 12.4554,6.2042 3.36468,-4.22272 c 1.85057,-2.3225 5.49943,-7.26872 8.10859,-10.9916 2.60915,-3.72289 5.83813,-7.48584 7.17551,-8.36212 3.30656,-2.16655 8.74588,-1.06741 11.39708,2.30304 3.79376,4.82299 2.84029,7.77375 -7.86217,24.33159 -5.44802,8.42867 -10.96052,15.91 -12.25,16.62518 -3.3422,1.85367 -7.67337,1.6318 -12.7037,-0.65077 C 254.74323,397.89012 252.4704,397 252.09006,397 251.20522,397 247,405.61121 247,407.42313 c 0,1.36603 10.2963,25.54749 30.39296,71.37962 C 283.22683,492.10739 288,503.21958 288,503.4965 c 0,0.27693 -3.05546,0.5035 -6.7899,0.5035 -13.07995,0 -23.77445,4.39668 -34.15694,14.04247 l -5.02134,4.66505 z M 231.01895,400.25 c 1.95326,-1.76084 3.26338,-4.08931 3.64232,-6.47346 0.52502,-3.30332 0.19387,-4.1214 -2.93473,-7.25 C 229.00303,383.80303 227.38384,383 224.61578,383 c -4.81758,0 -9.4755,4.1804 -10.27705,9.22346 -0.52502,3.30332 -0.19387,4.1214 2.93473,7.25 4.55431,4.55431 9.26001,4.82015 13.74549,0.77654 z M 776.78342,517.90714 C 767.83076,509.18932 754.72757,504 741.66746,504 c -5.40411,0 -6.69106,-0.27274 -5.89817,-1.25 0.9168,-1.12997 22.98743,-50.72164 36.28834,-81.5382 l 5.30378,-12.28821 -2.1807,-4.48854 C 773.98132,401.96634 773,399.28354 773,398.47325 c 0,-1.90091 -0.46824,-1.86439 -6.76073,0.52725 -7.22805,2.74724 -10.59602,2.56877 -14.16269,-0.7505 -3.2492,-3.02382 -19.82509,-29.39981 -20.72201,-32.9734 -0.83657,-3.33318 2.63325,-8.55485 6.40321,-9.63606 5.57448,-1.59875 8.34399,0.49103 16.82299,12.69407 4.26691,6.14097 7.89146,11.33757 8.05457,11.54801 0.16311,0.21044 6.1726,-2.46877 13.35441,-5.95381 l 13.05784,-6.33644 -0.2738,-15.92447 -0.27379,-15.92448 -11.19677,-6.73542 -11.19677,-6.73542 -10.09513,6.86371 C 748.08328,334.5266 745.13194,336 742.26282,336 737.40695,336 733,331.93184 733,327.44927 c 0,-4.00293 1.96746,-5.99079 17.86511,-18.05037 16.57446,-12.57301 15.05735,-12.62954 39.13489,1.45836 12.98426,7.59716 19.17083,11.81043 20.75,14.13148 2.15666,3.16984 2.25,4.17692 2.25,24.27616 v 20.96914 l 3.78782,3.67595 c 5.94666,5.77104 7.71608,10.27954 7.68836,19.59001 -0.027,9.05391 -1.38031,12.5183 -7.42231,19 -3.28243,3.5213 -4.2944,5.97463 -8.45607,20.5 -7.92817,27.67152 -25.80441,87.43749 -26.47071,88.5 -0.3449,0.55 -2.74955,-1.06679 -5.34367,-3.59286 z m 29.2935,-117.83022 c 8.30361,-8.30361 -1.47983,-21.05689 -11.98573,-15.62408 -5.92452,3.06369 -6.41498,11.41403 -0.94095,16.02013 4.22916,3.5586 9.12194,3.40869 12.92668,-0.39605 z M 730.69646,287.21708 c -0.88743,-0.9806 -3.00118,-6.0431 -4.6972,-11.25 -4.38378,-13.45843 -10.11192,-23.08311 -19.02489,-31.96646 -12.91997,-12.87705 -25.76654,-18.89233 -42.18894,-19.75456 -7.44593,-0.39093 -11.34701,-0.0866 -16.70489,1.30302 -5.52242,1.43233 -7.51417,1.57437 -9.48492,0.67644 -2.61588,-1.19187 -2.78434,-1.65641 -6.06507,-16.72552 -5.21352,-23.94677 -19.1934,-47.60653 -37.24498,-63.03398 -50.08074,-42.80057 -124.28512,-41.1386 -170.15664,3.81105 -7.80876,7.65183 -15.01476,17.17378 -20.80264,27.48845 -5.31176,9.46616 -7.0458,9.84567 -21.32629,4.66745 -9.04991,-3.28158 -24.40056,-4.39284 -34.24595,-2.47914 -20.84289,4.05135 -39.6674,18.1781 -48.69935,36.54617 -5.43202,11.04697 -7.10182,17.99321 -7.76088,32.28467 -0.53427,11.58557 -0.70869,12.39651 -3.06502,14.25 -5.69014,4.47586 -13.36612,1.08075 -14.79664,-6.5446 -1.25132,-6.67011 0.20455,-25.44109 2.5587,-32.99007 11.51525,-36.92559 45.70287,-62.5 83.5494,-62.5 8.67327,0 15.86506,0.93429 27.95974,3.63226 1.5897,0.35462 3.01956,-1.13144 6.9698,-7.24373 10.02644,-15.51412 31.03982,-34.26124 48.5302,-43.29631 9.98846,-5.15978 25.2847,-10.77556 36.42908,-13.37438 12.57528,-2.932502 47.63602,-3.165229 60.57092,-0.40206 51.80275,11.06616 92.41745,47.48523 106.98351,95.93174 l 2.63005,8.74752 10.94322,0.41618 c 18.94628,0.72054 33.75643,5.9412 48.94322,17.25277 15.90262,11.84473 28.20426,29.77902 32.91108,47.98035 2.29972,8.89301 2.07848,12.95701 -0.86563,15.90111 -3.03802,3.03803 -9.38201,3.39762 -11.84899,0.67163 z"
       id="path1" />
  </g>
</svg>
